<svg xmlns="http://www.w3.org/2000/svg" xmlns:xlink="http://www.w3.org/1999/xlink" version="1.1" x="0px" y="0px" viewBox="0 0 64 80" style="enable-background:new 0 0 64 64;" xml:space="preserve"><g><path d="M63,26.017c0-2.83-0.845-5.56-2.443-7.896L49,1.229L37.443,18.121C35.845,20.457,35,23.187,35,26.017   c0,7.379,5.748,13.425,13,13.934V58c0,1.654-1.346,3-3,3s-3-1.346-3-3v-9c0-2.206-1.794-4-4-4s-4,1.794-4,4v10c0,1.103-0.897,2-2,2   s-2-0.897-2-2V47c0-1.103-0.897-2-2-2h-3v-4.056c0-0.463,0.109-0.927,0.316-1.342l3.156-6.311C28.817,32.601,29,31.827,29,31.056   V10.5C29,8.57,27.43,7,25.5,7c-0.539,0-1.044,0.133-1.5,0.351V6.5C24,4.57,22.43,3,20.5,3c-0.612,0-1.178,0.172-1.679,0.448   C18.371,2.034,17.061,1,15.5,1s-2.871,1.034-3.321,2.448C11.678,3.172,11.112,3,10.5,3C8.57,3,7,4.57,7,6.5v7.04   C5.937,12.586,4.538,12,3,12c-1.103,0-2,0.897-2,2v17.056c0,0.771,0.183,1.545,0.527,2.236l3.156,6.31   C4.891,40.017,5,40.481,5,40.944V63h20V47h3v12c0,2.206,1.794,4,4,4s4-1.794,4-4V49c0-1.103,0.897-2,2-2s2,0.897,2,2v9   c0,2.757,2.243,5,5,5s5-2.243,5-5V39.95C57.252,39.442,63,33.395,63,26.017z M23,61H7V40.944c0-0.771-0.183-1.545-0.527-2.236   l-3.156-6.31C3.109,31.983,3,31.519,3,31.056V14c2.206,0,4,1.794,4,4v6v1h2v-1v-6V6.5C9,5.673,9.673,5,10.5,5S12,5.673,12,6.5V22v2   h2v-2V6.5v-2C14,3.673,14.673,3,15.5,3S17,3.673,17,4.5v2V22v2h2v-2V6.5C19,5.673,19.673,5,20.5,5S22,5.673,22,6.5v4V24h2V10.5   C24,9.673,24.673,9,25.5,9S27,9.673,27,10.5v20.556c0,0.463-0.109,0.927-0.316,1.342l-3.156,6.311   C23.183,39.399,23,40.173,23,40.944V45h-5v-6h-6v14h6v-6h5V61z M16,41v10h-2V41H16z M49.017,38h-0.033   C42.376,38,37,32.625,37,26.017c0-2.425,0.724-4.765,2.094-6.767L49,4.771l9.906,14.479C60.276,21.252,61,23.592,61,26.017   C61,32.625,55.624,38,49.017,38z"/><path d="M58.936,24.887l-1.986,0.226c0.033,0.298,0.051,0.6,0.051,0.904C57,30.418,53.419,34,48.983,34l0.033,2   C54.521,36,59,31.521,59,26.017C59,25.638,58.979,25.261,58.936,24.887z"/><path d="M58.421,22.664c-0.287-0.805-0.68-1.573-1.166-2.284l-1.65,1.13c0.39,0.569,0.703,1.184,0.934,1.827L58.421,22.664z"/><path d="M54,28c0-1.2-0.542-2.266-1.382-3C53.458,24.266,54,23.2,54,22c0-2.206-1.794-4-4-4h-6v6v2v6h6C52.206,32,54,30.206,54,28z    M46,20h4c1.103,0,2,0.897,2,2s-0.897,2-2,2h-4V20z M46,26h4c1.103,0,2,0.897,2,2s-0.897,2-2,2h-4V26z"/></g><text x="0" y="79" fill="#000000" font-size="5px" font-weight="bold" font-family="'Helvetica Neue', Helvetica, Arial-Unicode, Arial, Sans-serif">Created by Eucalyp</text><text x="0" y="84" fill="#000000" font-size="5px" font-weight="bold" font-family="'Helvetica Neue', Helvetica, Arial-Unicode, Arial, Sans-serif">from the Noun Project</text></svg>